<svg id="b9c2169b-57a8-4ff5-b4de-3bbde884272f" data-name="RA" xmlns="http://www.w3.org/2000/svg" xmlns:xlink="http://www.w3.org/1999/xlink" viewBox="0 0 2506.45 1507.96"><defs><style>.ba84c7b3-3689-4609-878b-f3c9d592634a{fill:url(#f4b5ded7-0f9b-4f99-bb87-3a112c507d4f);}.ead0c417-78d4-4b9a-b121-8a7305ce05db{fill:url(#bbe7c06f-0e1b-4931-95b5-01969e06a31b);}.bc4bc9ab-5032-4668-8f77-8f0c44935c56{fill:url(#b7826c83-27ed-4440-9531-82d46c4829b2);}.f15051e4-8c67-4e0a-825b-711039d7b131{fill:url(#fdcf1779-8366-4735-b4f4-93d7236eaba2);}.b6193dc6-9c37-42ee-9b4c-770017d308a7{fill:url(#a2c07f50-3893-4b16-a383-1db92f97fe3d);}.f1a070e3-53c1-42e2-b589-8f4c4311202f{fill:url(#a2206195-515c-4dc1-a4f2-7be90aaa10e7);}.bc0d419e-ad5c-48ee-bac8-36c4417a47e0{fill:url(#aebea92a-f8ad-432e-aad4-d00ab2976a4a);}.b7aaf2b1-0650-46c4-a46f-6b3a9af77dac{fill:url(#f370d14e-e3b7-4ea1-8d61-aa7a35c9969f);}.beb1e813-e565-4e33-aeb0-3f58d6016cf9{fill:url(#afc5eff5-5eb7-412c-87c0-78889ed7e4d7);}.a40e4004-f2cd-49c4-84be-f885810f8bc0{fill:url(#e1d417ab-9960-44ab-b0a8-f67bbbe816fb);}.ee212f9e-8906-4cb5-8b6f-dbdf23dfc15f{fill:url(#b387d505-ea8e-478c-89c5-0c47077c8ea4);}.e15dd3cc-460b-4efa-b70a-15065619bfa4{fill:url(#bdcfcc35-23bf-47a6-afbf-59b238e9d3bc);}</style><linearGradient id="f4b5ded7-0f9b-4f99-bb87-3a112c507d4f" x1="2576.78" y1="-447.08" x2="-103.78" y2="342.46" gradientUnits="userSpaceOnUse"><stop offset="0" stop-color="#21409a"/><stop offset="1" stop-color="#2e5fdc"/></linearGradient><linearGradient id="bbe7c06f-0e1b-4931-95b5-01969e06a31b" x1="2684.49" y1="-81.41" x2="3.93" y2="708.14" xlink:href="#f4b5ded7-0f9b-4f99-bb87-3a112c507d4f"/><linearGradient id="b7826c83-27ed-4440-9531-82d46c4829b2" x1="2806.4" y1="332.49" x2="125.84" y2="1122.04" xlink:href="#f4b5ded7-0f9b-4f99-bb87-3a112c507d4f"/><linearGradient id="fdcf1779-8366-4735-b4f4-93d7236eaba2" x1="2909.96" y1="684.09" x2="229.4" y2="1473.64" xlink:href="#f4b5ded7-0f9b-4f99-bb87-3a112c507d4f"/><linearGradient id="a2c07f50-3893-4b16-a383-1db92f97fe3d" x1="3636.38" y1="1785.26" x2="955.82" y2="2574.81" xlink:href="#f4b5ded7-0f9b-4f99-bb87-3a112c507d4f"/><linearGradient id="a2206195-515c-4dc1-a4f2-7be90aaa10e7" x1="3661.22" y1="1869.59" x2="980.66" y2="2659.14" xlink:href="#f4b5ded7-0f9b-4f99-bb87-3a112c507d4f"/><linearGradient id="aebea92a-f8ad-432e-aad4-d00ab2976a4a" x1="3679.2" y1="1930.65" x2="998.64" y2="2720.19" xlink:href="#f4b5ded7-0f9b-4f99-bb87-3a112c507d4f"/><linearGradient id="f370d14e-e3b7-4ea1-8d61-aa7a35c9969f" x1="3697.77" y1="1993.69" x2="1017.21" y2="2783.24" xlink:href="#f4b5ded7-0f9b-4f99-bb87-3a112c507d4f"/><linearGradient id="afc5eff5-5eb7-412c-87c0-78889ed7e4d7" x1="3724.86" y1="2085.65" x2="1044.3" y2="2875.2" xlink:href="#f4b5ded7-0f9b-4f99-bb87-3a112c507d4f"/><linearGradient id="e1d417ab-9960-44ab-b0a8-f67bbbe816fb" x1="3745.79" y1="2156.72" x2="1065.23" y2="2946.27" xlink:href="#f4b5ded7-0f9b-4f99-bb87-3a112c507d4f"/><linearGradient id="b387d505-ea8e-478c-89c5-0c47077c8ea4" x1="3767.69" y1="2231.05" x2="1087.12" y2="3020.6" xlink:href="#f4b5ded7-0f9b-4f99-bb87-3a112c507d4f"/><linearGradient id="bdcfcc35-23bf-47a6-afbf-59b238e9d3bc" x1="3789.48" y1="2305.03" x2="1108.92" y2="3094.58" xlink:href="#f4b5ded7-0f9b-4f99-bb87-3a112c507d4f"/></defs><polygon class="ba84c7b3-3689-4609-878b-f3c9d592634a" points="238.71 223.79 313.31 149.19 1372.58 149.19 1372.58 0 238.71 0 0 238.71 238.71 387.9 238.71 223.79"/><polygon class="ead0c417-78d4-4b9a-b121-8a7305ce05db" points="2003.17 149.19 1133.87 501.6 1133.87 669.35 2416.93 149.19 2267.74 0 1409.88 0 1409.88 74.68 1484.39 149.19 2003.17 149.19"/><polygon class="bc4bc9ab-5032-4668-8f77-8f0c44935c56" points="1096.57 684.48 1096.57 516.74 89.52 925 238.71 1074.19 1372.58 1074.19 1372.58 925 503.28 925 1096.57 684.48"/><polygon class="f15051e4-8c67-4e0a-825b-711039d7b131" points="2267.74 686.29 2267.74 850.4 2193.14 925 1409.88 925 1409.88 999.6 1484.47 1074.19 2267.74 1074.19 2506.45 835.48 2267.74 686.29"/><path class="b6193dc6-9c37-42ee-9b4c-770017d308a7" d="M985.19,2672V2417.63h60.91q25.74,0,43.48,6.13t27,20.88q9.26,14.76,9.26,40.18a122.86,122.86,0,0,1-2.83,27.63,52.44,52.44,0,0,1-9.57,20.88q-6.77,8.64-18.69,13.35L1130.24,2672h-46.46L1053,2555.47h-21.35V2672Zm46.47-145.68h14.44q13.5,0,21.51-3.93a22.94,22.94,0,0,0,11.46-12.56q3.45-8.62,3.45-22.13,0-19.16-7.06-28.73t-26.85-9.58h-16.95Z" transform="translate(-746.78 -1170.28)"/><path class="f1a070e3-53c1-42e2-b589-8f4c4311202f" d="M1267.76,2672l50.87-254.32h49.6L1419.1,2672h-43l-10-58.71h-44.27L1311.41,2672Zm58.72-88.22H1361L1343.74,2477Z" transform="translate(-746.78 -1170.28)"/><path class="bc0d419e-ad5c-48ee-bac8-36c4417a47e0" d="M1547.83,2678.23v-32.65a91.14,91.14,0,0,0,16.64-1.26q6.58-1.25,10.2-4.55t5.18-9.73a71.21,71.21,0,0,0,1.57-16.49V2417.63h46.16v197.81q0,21.34-5,35.32a36.89,36.89,0,0,1-17.42,20.72q-12.42,6.75-35,6.75Z" transform="translate(-746.78 -1170.28)"/><path class="b7aaf2b1-0650-46c4-a46f-6b3a9af77dac" d="M1785.5,2672V2417.63h60q31.08,0,48.51,8.48a49.42,49.42,0,0,1,24.8,26.06q7.38,17.58,7.38,44.59v92.93q0,27.63-7.38,46a51.45,51.45,0,0,1-24.49,27.32q-17.11,8.94-46.94,8.94Zm46.47-32.34h14.13q16,0,22.92-5.65t8.48-16.48a190.07,190.07,0,0,0,1.57-26.53v-97.34q0-15.37-2.2-24.8t-9.11-13.81q-6.9-4.39-22.29-4.4H1832Z" transform="translate(-746.78 -1170.28)"/><path class="beb1e813-e565-4e33-aeb0-3f58d6016cf9" d="M2064.94,2672l50.86-254.32h49.61L2216.27,2672h-43l-10.05-58.71h-44.27L2108.58,2672Zm58.71-88.22h34.54L2140.92,2477Z" transform="translate(-746.78 -1170.28)"/><path class="a40e4004-f2cd-49c4-84be-f885810f8bc0" d="M2427.27,2675.41q-27,0-43-10t-22.92-28.89q-6.91-18.82-6.91-44.58v-95.13q0-25.76,6.91-44.12a54.12,54.12,0,0,1,22.92-28.1q16-9.72,43-9.73,27.61,0,43.48,9.73t22.92,28.1q7.07,18.38,7.07,44.12v95.44q0,25.44-7.07,44.12t-22.92,28.88Q2454.89,2675.4,2427.27,2675.41Zm0-34.23q11.61,0,17.11-5t7.38-13.81a91.88,91.88,0,0,0,1.88-19.16V2486.08a89,89,0,0,0-1.88-19.15q-1.89-8.47-7.38-13.35t-17.11-4.86q-11,0-16.64,4.86a23.87,23.87,0,0,0-7.54,13.35,88.4,88.4,0,0,0-1.88,19.15v117.11a99.64,99.64,0,0,0,1.72,19.16q1.72,8.79,7.38,13.81T2427.27,2641.18Z" transform="translate(-746.78 -1170.28)"/><path class="ee212f9e-8906-4cb5-8b6f-dbdf23dfc15f" d="M2724,2675.41q-28.26,0-44-10.36t-21.66-29.52q-6-19.14-6-45.84V2417.63h45.22V2595a151.67,151.67,0,0,0,1.57,22.45q1.56,10.51,7.37,16.95t17.43,6.44q12.24,0,17.74-6.44t7.22-16.95a138.69,138.69,0,0,0,1.73-22.45v-177.4h44.9v172.06q0,26.7-6,45.84t-21.51,29.52Q2752.54,2675.4,2724,2675.41Z" transform="translate(-746.78 -1170.28)"/><path class="e15dd3cc-460b-4efa-b70a-15065619bfa4" d="M2952.54,2672V2417.63h45.84V2672Z" transform="translate(-746.78 -1170.28)"/></svg>