<svg width="261" height="260" viewBox="0 0 261 260" fill="none" xmlns="http://www.w3.org/2000/svg">
<g filter="url(#filter0_d_25_401)">
<path d="M40.9329 100C40.9329 69.8301 40.9329 54.7452 50.3054 45.3726C59.678 36 74.763 36 104.933 36H156.933C187.103 36 202.188 36 211.56 45.3726C220.933 54.7452 220.933 69.8301 220.933 100V152C220.933 182.17 220.933 197.255 211.56 206.627C202.188 216 187.103 216 156.933 216H104.933C74.763 216 59.678 216 50.3054 206.627C40.9329 197.255 40.9329 182.17 40.9329 152V100Z" fill="white"/>
<path d="M50.3054 206.627L49.5983 207.335L50.3054 206.627ZM211.56 206.627L210.853 205.92L211.56 206.627ZM211.56 45.3726L212.267 44.6655L211.56 45.3726ZM104.933 37H156.933V35H104.933V37ZM219.933 100V152H221.933V100H219.933ZM156.933 215H104.933V217H156.933V215ZM41.9329 152V100H39.9329V152H41.9329ZM104.933 215C89.8196 215 78.5853 214.998 69.9534 213.837C61.3503 212.681 55.4821 210.39 51.0126 205.92L49.5983 207.335C54.5014 212.238 60.862 214.633 69.6869 215.82C78.4831 217.002 89.8762 217 104.933 217V215ZM39.9329 152C39.9329 167.057 39.9307 178.45 41.1134 187.246C42.2998 196.071 44.6953 202.431 49.5983 207.335L51.0126 205.92C46.543 201.451 44.2522 195.583 43.0955 186.979C41.935 178.348 41.9329 167.113 41.9329 152H39.9329ZM219.933 152C219.933 167.113 219.931 178.348 218.77 186.979C217.614 195.583 215.323 201.451 210.853 205.92L212.267 207.335C217.17 202.431 219.566 196.071 220.752 187.246C221.935 178.45 221.933 167.057 221.933 152H219.933ZM156.933 217C171.99 217 183.383 217.002 192.179 215.82C201.004 214.633 207.364 212.238 212.267 207.335L210.853 205.92C206.384 210.39 200.515 212.681 191.912 213.837C183.28 214.998 172.046 215 156.933 215V217ZM156.933 37C172.046 37 183.28 37.0021 191.912 38.1627C200.515 39.3193 206.384 41.6102 210.853 46.0797L212.267 44.6655C207.364 39.7624 201.004 37.367 192.179 36.1805C183.383 34.9979 171.99 35 156.933 35V37ZM221.933 100C221.933 84.9433 221.935 73.5502 220.752 64.7541C219.566 55.9291 217.17 49.5685 212.267 44.6655L210.853 46.0797C215.323 50.5492 217.614 56.4174 218.77 65.0205C219.931 73.6525 219.933 84.8868 219.933 100H221.933ZM104.933 35C89.8762 35 78.4831 34.9979 69.6869 36.1805C60.862 37.367 54.5014 39.7624 49.5983 44.6655L51.0126 46.0797C55.4821 41.6102 61.3503 39.3193 69.9534 38.1627C78.5853 37.0021 89.8196 37 104.933 37V35ZM41.9329 100C41.9329 84.8868 41.935 73.6525 43.0955 65.0205C44.2522 56.4174 46.543 50.5492 51.0126 46.0797L49.5983 44.6655C44.6953 49.5685 42.2998 55.9291 41.1134 64.7541C39.9307 73.5502 39.9329 84.9433 39.9329 100H41.9329Z" fill="#D9D9D9"/>
</g>
<path d="M153.774 139.516C151.478 139.516 149.61 137.647 149.61 135.351C149.61 133.055 151.478 131.187 153.774 131.187C156.07 131.187 157.938 133.055 157.938 135.351C157.938 137.647 156.07 139.516 153.774 139.516ZM107.748 139.516C105.452 139.516 103.585 137.647 103.585 135.351C103.585 133.055 105.452 131.187 107.748 131.187C110.045 131.187 111.912 133.055 111.912 135.351C111.912 137.647 110.045 139.516 107.748 139.516ZM155.267 114.433L163.589 100.02C163.818 99.622 163.88 99.1495 163.762 98.7062C163.643 98.2628 163.353 97.8846 162.956 97.6547C162.558 97.4257 162.085 97.3639 161.642 97.4827C161.199 97.6015 160.821 97.8912 160.591 98.2885L152.164 112.884C145.72 109.944 138.483 108.305 130.761 108.305C123.039 108.305 115.802 109.944 109.358 112.884L100.932 98.2885C100.702 97.8912 100.323 97.6015 99.8801 97.4827C99.4368 97.3639 98.9644 97.4257 98.5666 97.6547C98.1691 97.8844 97.879 98.2626 97.7602 98.706C97.6414 99.1495 97.7035 99.622 97.9328 100.02L106.255 114.433C91.9647 122.205 82.1909 136.673 80.7611 153.765H180.761C179.33 136.673 169.556 122.205 155.267 114.433" fill="#3DDB85"/>
<defs>
<filter id="filter0_d_25_401" x="0.932861" y="0" width="260" height="260" filterUnits="userSpaceOnUse" color-interpolation-filters="sRGB">
<feFlood flood-opacity="0" result="BackgroundImageFix"/>
<feColorMatrix in="SourceAlpha" type="matrix" values="0 0 0 0 0 0 0 0 0 0 0 0 0 0 0 0 0 0 127 0" result="hardAlpha"/>
<feOffset dy="4"/>
<feGaussianBlur stdDeviation="20"/>
<feComposite in2="hardAlpha" operator="out"/>
<feColorMatrix type="matrix" values="0 0 0 0 0.0367917 0 0 0 0 0.0348958 0 0 0 0 0.0484375 0 0 0 0.1 0"/>
<feBlend mode="normal" in2="BackgroundImageFix" result="effect1_dropShadow_25_401"/>
<feBlend mode="normal" in="SourceGraphic" in2="effect1_dropShadow_25_401" result="shape"/>
</filter>
</defs>
</svg>
