<svg width="261" height="261" viewBox="0 0 261 261" fill="none" xmlns="http://www.w3.org/2000/svg">
<g filter="url(#filter0_d_22_657)">
<path d="M40.724 100.891C40.724 70.721 40.724 55.636 50.0966 46.2635C59.4692 36.8909 74.5541 36.8909 104.724 36.8909H156.724C186.894 36.8909 201.979 36.8909 211.351 46.2635C220.724 55.636 220.724 70.721 220.724 100.891V152.891C220.724 183.061 220.724 198.146 211.351 207.518C201.979 216.891 186.894 216.891 156.724 216.891H104.724C74.5541 216.891 59.4692 216.891 50.0966 207.518C40.724 198.146 40.724 183.061 40.724 152.891V100.891Z" fill="white"/>
<path d="M50.0966 207.518L49.3895 208.225L50.0966 207.518ZM211.351 207.518L210.644 206.811L211.351 207.518ZM211.351 46.2635L212.059 45.5563L211.351 46.2635ZM104.724 37.8909H156.724V35.8909H104.724V37.8909ZM219.724 100.891V152.891H221.724V100.891H219.724ZM156.724 215.891H104.724V217.891H156.724V215.891ZM41.724 152.891V100.891H39.724V152.891H41.724ZM104.724 215.891C89.6108 215.891 78.3765 215.889 69.7445 214.728C61.1414 213.572 55.2732 211.281 50.8037 206.811L49.3895 208.225C54.2925 213.128 60.6531 215.524 69.4781 216.71C78.2742 217.893 89.6673 217.891 104.724 217.891V215.891ZM39.724 152.891C39.724 167.948 39.7219 179.341 40.9045 188.137C42.091 196.962 44.4864 203.322 49.3895 208.225L50.8037 206.811C46.3342 202.342 44.0433 196.473 42.8867 187.87C41.7261 179.238 41.724 168.004 41.724 152.891H39.724ZM219.724 152.891C219.724 168.004 219.722 179.238 218.561 187.87C217.405 196.473 215.114 202.342 210.644 206.811L212.059 208.225C216.962 203.322 219.357 196.962 220.544 188.137C221.726 179.341 221.724 167.948 221.724 152.891H219.724ZM156.724 217.891C171.781 217.891 183.174 217.893 191.97 216.71C200.795 215.524 207.155 213.128 212.059 208.225L210.644 206.811C206.175 211.281 200.307 213.572 191.703 214.728C183.072 215.889 171.837 215.891 156.724 215.891V217.891ZM156.724 37.8909C171.837 37.8909 183.072 37.893 191.703 39.0535C200.307 40.2102 206.175 42.501 210.644 46.9706L212.059 45.5563C207.155 40.6533 200.795 38.2578 191.97 37.0714C183.174 35.8887 171.781 35.8909 156.724 35.8909V37.8909ZM221.724 100.891C221.724 85.8342 221.726 74.4411 220.544 65.6449C219.357 56.82 216.962 50.4594 212.059 45.5563L210.644 46.9706C215.114 51.4401 217.405 57.3083 218.561 65.9114C219.722 74.5433 219.724 85.7777 219.724 100.891H221.724ZM104.724 35.8909C89.6673 35.8909 78.2742 35.8887 69.4781 37.0714C60.6531 38.2578 54.2925 40.6533 49.3895 45.5563L50.8037 46.9706C55.2732 42.501 61.1414 40.2102 69.7445 39.0535C78.3765 37.893 89.6108 37.8909 104.724 37.8909V35.8909ZM41.724 100.891C41.724 85.7777 41.7261 74.5433 42.8867 65.9114C44.0433 57.3083 46.3342 51.4401 50.8037 46.9706L49.3895 45.5563C44.4864 50.4594 42.091 56.82 40.9045 65.6449C39.7219 74.4411 39.724 85.8342 39.724 100.891H41.724Z" fill="#D9D9D9"/>
</g>
<path d="M179.566 117.694C179.295 117.479 176.763 115.567 171.424 115.567C170.014 115.573 168.607 115.694 167.217 115.929C166.183 108.846 160.327 105.392 160.065 105.237L158.631 104.411L157.688 105.771C156.507 107.599 155.645 109.614 155.139 111.731C154.183 115.774 154.764 119.572 156.818 122.818C154.338 124.201 150.359 124.541 149.554 124.571H83.6825C81.962 124.573 80.5658 125.964 80.5564 127.684C80.4796 133.455 81.4573 139.191 83.4414 144.61C85.7105 150.561 89.0864 154.945 93.4784 157.627C98.4001 160.641 106.396 162.364 115.46 162.364C119.555 162.377 123.642 162.006 127.667 161.257C133.263 160.23 138.648 158.274 143.599 155.47C147.678 153.107 151.35 150.102 154.471 146.57C159.69 140.662 162.799 134.082 165.111 128.235H166.033C171.747 128.235 175.26 125.949 177.198 124.033C178.486 122.811 179.491 121.322 180.143 119.671L180.552 118.474L179.566 117.694Z" fill="#2496ED"/>
<path d="M89.7882 122.642H98.6153C99.041 122.642 99.386 122.297 99.386 121.871V114.009C99.3884 113.583 99.0452 113.236 98.6196 113.234C98.6182 113.234 98.6167 113.234 98.6153 113.234H89.7882C89.3625 113.234 89.0175 113.579 89.0175 114.004V114.009V121.871C89.0175 122.297 89.3625 122.642 89.7882 122.642Z" fill="#2496ED"/>
<path d="M101.952 122.642H110.779C111.205 122.642 111.55 122.297 111.55 121.871V114.009C111.553 113.583 111.209 113.236 110.784 113.234C110.782 113.234 110.781 113.234 110.779 113.234H101.952C101.524 113.234 101.177 113.58 101.177 114.009V121.871C101.18 122.298 101.526 122.642 101.952 122.642Z" fill="#2496ED"/>
<path d="M114.302 122.642H123.129C123.554 122.642 123.899 122.297 123.899 121.871V114.009C123.902 113.583 123.559 113.236 123.133 113.234C123.131 113.234 123.13 113.234 123.129 113.234H114.301C113.876 113.234 113.531 113.579 113.531 114.004V114.009V121.871C113.531 122.297 113.876 122.642 114.302 122.642Z" fill="#2496ED"/>
<path d="M126.505 122.642H135.332C135.758 122.642 136.104 122.298 136.107 121.871V114.009C136.107 113.58 135.76 113.234 135.332 113.234H126.505C126.079 113.234 125.734 113.579 125.734 114.004V114.009V121.871C125.734 122.297 126.079 122.642 126.505 122.642Z" fill="#2496ED"/>
<path d="M101.952 111.33H110.779C111.206 111.328 111.55 110.982 111.55 110.555V102.693C111.55 102.267 111.205 101.922 110.779 101.922H101.952C101.526 101.922 101.18 102.266 101.177 102.693V110.555C101.18 110.982 101.525 111.328 101.952 111.33Z" fill="#2496ED"/>
<path d="M114.302 111.33H123.129C123.555 111.328 123.899 110.982 123.899 110.555V102.693C123.899 102.267 123.554 101.922 123.129 101.922H114.302C113.876 101.922 113.531 102.267 113.531 102.693V110.555C113.531 110.982 113.875 111.328 114.302 111.33Z" fill="#2496ED"/>
<path d="M126.505 111.33H135.332C135.759 111.328 136.104 110.982 136.107 110.555V102.693C136.104 102.266 135.758 101.922 135.332 101.922H126.505C126.079 101.922 125.734 102.267 125.734 102.693V110.555C125.734 110.982 126.078 111.328 126.505 111.33Z" fill="#2496ED"/>
<path d="M126.505 100.015H135.332C135.758 100.015 136.104 99.6702 136.107 99.2439V91.3769C136.104 90.9505 135.758 90.6062 135.332 90.6062H126.505C126.079 90.6062 125.734 90.9512 125.734 91.3769V99.2438C125.734 99.6695 126.079 100.015 126.505 100.015Z" fill="#2496ED"/>
<path d="M138.815 122.642H147.642C148.069 122.642 148.415 122.298 148.417 121.871V114.009C148.417 113.58 148.07 113.234 147.642 113.234H138.815C138.389 113.234 138.044 113.579 138.044 114.004V114.009V121.871C138.044 122.297 138.389 122.642 138.815 122.642Z" fill="#2496ED"/>
<defs>
<filter id="filter0_d_22_657" x="0.723999" y="0.890869" width="260" height="260" filterUnits="userSpaceOnUse" color-interpolation-filters="sRGB">
<feFlood flood-opacity="0" result="BackgroundImageFix"/>
<feColorMatrix in="SourceAlpha" type="matrix" values="0 0 0 0 0 0 0 0 0 0 0 0 0 0 0 0 0 0 127 0" result="hardAlpha"/>
<feOffset dy="4"/>
<feGaussianBlur stdDeviation="20"/>
<feComposite in2="hardAlpha" operator="out"/>
<feColorMatrix type="matrix" values="0 0 0 0 0.0367917 0 0 0 0 0.0348958 0 0 0 0 0.0484375 0 0 0 0.1 0"/>
<feBlend mode="normal" in2="BackgroundImageFix" result="effect1_dropShadow_22_657"/>
<feBlend mode="normal" in="SourceGraphic" in2="effect1_dropShadow_22_657" result="shape"/>
</filter>
</defs>
</svg>
