<svg width="261" height="261" viewBox="0 0 261 261" fill="none" xmlns="http://www.w3.org/2000/svg">
<g filter="url(#filter0_d_22_685)">
<path d="M40.724 100.594C40.724 70.424 40.724 55.339 50.0966 45.9665C59.4692 36.5939 74.5541 36.5939 104.724 36.5939H156.724C186.894 36.5939 201.979 36.5939 211.351 45.9665C220.724 55.339 220.724 70.424 220.724 100.594V152.594C220.724 182.764 220.724 197.849 211.351 207.221C201.979 216.594 186.894 216.594 156.724 216.594H104.724C74.5541 216.594 59.4692 216.594 50.0966 207.221C40.724 197.849 40.724 182.764 40.724 152.594V100.594Z" fill="white"/>
<path d="M50.0966 207.221L49.3895 207.928L50.0966 207.221ZM211.351 207.221L210.644 206.514L211.351 207.221ZM211.351 45.9665L212.059 45.2593L211.351 45.9665ZM104.724 37.5939H156.724V35.5939H104.724V37.5939ZM219.724 100.594V152.594H221.724V100.594H219.724ZM156.724 215.594H104.724V217.594H156.724V215.594ZM41.724 152.594V100.594H39.724V152.594H41.724ZM104.724 215.594C89.6108 215.594 78.3765 215.592 69.7445 214.431C61.1414 213.275 55.2732 210.984 50.8037 206.514L49.3895 207.928C54.2925 212.831 60.6531 215.227 69.4781 216.413C78.2742 217.596 89.6673 217.594 104.724 217.594V215.594ZM39.724 152.594C39.724 167.651 39.7219 179.044 40.9045 187.84C42.091 196.665 44.4864 203.025 49.3895 207.928L50.8037 206.514C46.3342 202.045 44.0433 196.176 42.8867 187.573C41.7261 178.941 41.724 167.707 41.724 152.594H39.724ZM219.724 152.594C219.724 167.707 219.722 178.941 218.561 187.573C217.405 196.176 215.114 202.045 210.644 206.514L212.059 207.928C216.962 203.025 219.357 196.665 220.544 187.84C221.726 179.044 221.724 167.651 221.724 152.594H219.724ZM156.724 217.594C171.781 217.594 183.174 217.596 191.97 216.413C200.795 215.227 207.155 212.831 212.059 207.928L210.644 206.514C206.175 210.984 200.307 213.275 191.703 214.431C183.072 215.592 171.837 215.594 156.724 215.594V217.594ZM156.724 37.5939C171.837 37.5939 183.072 37.596 191.703 38.7565C200.307 39.9132 206.175 42.204 210.644 46.6736L212.059 45.2593C207.155 40.3563 200.795 37.9608 191.97 36.7744C183.174 35.5917 171.781 35.5939 156.724 35.5939V37.5939ZM221.724 100.594C221.724 85.5372 221.726 74.1441 220.544 65.3479C219.357 56.523 216.962 50.1624 212.059 45.2593L210.644 46.6736C215.114 51.1431 217.405 57.0113 218.561 65.6144C219.722 74.2463 219.724 85.4807 219.724 100.594H221.724ZM104.724 35.5939C89.6673 35.5939 78.2742 35.5917 69.4781 36.7744C60.6531 37.9608 54.2925 40.3563 49.3895 45.2593L50.8037 46.6736C55.2732 42.204 61.1414 39.9132 69.7445 38.7565C78.3765 37.596 89.6108 37.5939 104.724 37.5939V35.5939ZM41.724 100.594C41.724 85.4807 41.7261 74.2463 42.8867 65.6144C44.0433 57.0113 46.3342 51.1431 50.8037 46.6736L49.3895 45.2593C44.4864 50.1624 42.091 56.523 40.9045 65.3479C39.7219 74.1441 39.724 85.5372 39.724 100.594H41.724Z" fill="#D9D9D9"/>
</g>
<path d="M178.666 121.733L135.005 78.0741C132.492 75.5596 128.414 75.5596 125.898 78.0741L116.832 87.1405L128.333 98.6416C131.006 97.7385 134.071 98.3444 136.201 100.475C138.342 102.619 138.943 105.71 138.018 108.391L149.102 119.476C151.784 118.552 154.878 119.149 157.02 121.295C160.013 124.287 160.013 129.137 157.02 132.131C154.026 135.125 149.176 135.125 146.18 132.131C143.929 129.877 143.373 126.57 144.512 123.796L134.176 113.46L134.175 140.662C134.924 141.032 135.608 141.521 136.201 142.111C139.194 145.103 139.194 149.953 136.201 152.949C133.207 155.942 128.355 155.942 125.365 152.949C122.372 149.953 122.372 145.103 125.365 142.111C126.082 141.393 126.935 140.825 127.873 140.439V112.983C126.934 112.6 126.081 112.031 125.365 111.311C123.097 109.046 122.552 105.719 123.714 102.934L112.376 91.5952L82.439 121.531C79.9233 124.048 79.9233 128.126 82.439 130.641L126.101 174.3C128.614 176.815 132.692 176.815 135.208 174.3L178.666 130.844C181.181 128.328 181.181 124.247 178.666 121.733" fill="#DE4C36"/>
<defs>
<filter id="filter0_d_22_685" x="0.723999" y="0.593872" width="260" height="260" filterUnits="userSpaceOnUse" color-interpolation-filters="sRGB">
<feFlood flood-opacity="0" result="BackgroundImageFix"/>
<feColorMatrix in="SourceAlpha" type="matrix" values="0 0 0 0 0 0 0 0 0 0 0 0 0 0 0 0 0 0 127 0" result="hardAlpha"/>
<feOffset dy="4"/>
<feGaussianBlur stdDeviation="20"/>
<feComposite in2="hardAlpha" operator="out"/>
<feColorMatrix type="matrix" values="0 0 0 0 0.0367917 0 0 0 0 0.0348958 0 0 0 0 0.0484375 0 0 0 0.1 0"/>
<feBlend mode="normal" in2="BackgroundImageFix" result="effect1_dropShadow_22_685"/>
<feBlend mode="normal" in="SourceGraphic" in2="effect1_dropShadow_22_685" result="shape"/>
</filter>
</defs>
</svg>
