<svg width="261" height="261" viewBox="0 0 261 261" fill="none" xmlns="http://www.w3.org/2000/svg">
<g filter="url(#filter0_d_33_2245)">
<path d="M40.3135 100.891C40.3135 70.721 40.3135 55.636 49.6861 46.2635C59.0586 36.8909 74.1436 36.8909 104.313 36.8909H156.313C186.483 36.8909 201.568 36.8909 210.941 46.2635C220.313 55.636 220.313 70.721 220.313 100.891V152.891C220.313 183.061 220.313 198.146 210.941 207.518C201.568 216.891 186.483 216.891 156.313 216.891H104.313C74.1436 216.891 59.0586 216.891 49.6861 207.518C40.3135 198.146 40.3135 183.061 40.3135 152.891V100.891Z" fill="white"/>
<path d="M49.6861 207.518L48.979 208.225L49.6861 207.518ZM210.941 207.518L210.234 206.811L210.941 207.518ZM210.941 46.2635L211.648 45.5563L210.941 46.2635ZM104.313 37.8909H156.313V35.8909H104.313V37.8909ZM219.313 100.891V152.891H221.313V100.891H219.313ZM156.313 215.891H104.313V217.891H156.313V215.891ZM41.3135 152.891V100.891H39.3135V152.891H41.3135ZM104.313 215.891C89.2003 215.891 77.9659 215.889 69.334 214.728C60.7309 213.572 54.8627 211.281 50.3932 206.811L48.979 208.225C53.882 213.128 60.2426 215.524 69.0675 216.71C77.8637 217.893 89.2568 217.891 104.313 217.891V215.891ZM39.3135 152.891C39.3135 167.948 39.3114 179.341 40.494 188.137C41.6804 196.962 44.0759 203.322 48.979 208.225L50.3932 206.811C45.9236 202.342 43.6328 196.473 42.4761 187.87C41.3156 179.238 41.3135 168.004 41.3135 152.891H39.3135ZM219.313 152.891C219.313 168.004 219.311 179.238 218.151 187.87C216.994 196.473 214.703 202.342 210.234 206.811L211.648 208.225C216.551 203.322 218.947 196.962 220.133 188.137C221.316 179.341 221.313 167.948 221.313 152.891H219.313ZM156.313 217.891C171.37 217.891 182.763 217.893 191.559 216.71C200.384 215.524 206.745 213.128 211.648 208.225L210.234 206.811C205.764 211.281 199.896 213.572 191.293 214.728C182.661 215.889 171.427 215.891 156.313 215.891V217.891ZM156.313 37.8909C171.427 37.8909 182.661 37.893 191.293 39.0535C199.896 40.2102 205.764 42.501 210.234 46.9706L211.648 45.5563C206.745 40.6533 200.384 38.2578 191.559 37.0714C182.763 35.8887 171.37 35.8909 156.313 35.8909V37.8909ZM221.313 100.891C221.313 85.8342 221.316 74.4411 220.133 65.6449C218.947 56.82 216.551 50.4594 211.648 45.5563L210.234 46.9706C214.703 51.4401 216.994 57.3083 218.151 65.9114C219.311 74.5433 219.313 85.7777 219.313 100.891H221.313ZM104.313 35.8909C89.2568 35.8909 77.8637 35.8887 69.0675 37.0714C60.2426 38.2578 53.882 40.6533 48.979 45.5563L50.3932 46.9706C54.8627 42.501 60.7309 40.2102 69.334 39.0535C77.966 37.893 89.2003 37.8909 104.313 37.8909V35.8909ZM41.3135 100.891C41.3135 85.7777 41.3156 74.5433 42.4761 65.9114C43.6328 57.3083 45.9236 51.4401 50.3932 46.9706L48.979 45.5563C44.0759 50.4594 41.6804 56.82 40.494 65.6449C39.3114 74.4411 39.3135 85.8342 39.3135 100.891H41.3135Z" fill="#D9D9D9"/>
</g>
<path d="M117.466 153.821C117.466 153.821 113.645 156.043 120.186 156.795C128.11 157.699 132.16 157.569 140.892 155.917C140.892 155.917 143.188 157.356 146.395 158.603C126.819 166.993 102.09 158.117 117.466 153.821ZM115.074 142.872C115.074 142.872 110.788 146.045 117.334 146.722C125.799 147.595 132.483 147.667 144.051 145.439C144.051 145.439 145.651 147.061 148.167 147.949C124.498 154.87 98.1356 148.494 115.074 142.872Z" fill="#5382A1"/>
<path d="M135.24 124.301C140.064 129.854 133.973 134.851 133.973 134.851C133.973 134.851 146.221 128.529 140.596 120.611C135.342 113.228 131.314 109.559 153.123 96.9102C153.123 96.9102 118.889 105.46 135.24 124.3" fill="#E76F00"/>
<path d="M161.131 161.919C161.131 161.919 163.959 164.249 158.016 166.052C146.717 169.475 110.987 170.508 101.061 166.188C97.4929 164.636 104.184 162.482 106.289 162.03C108.484 161.554 109.738 161.643 109.738 161.643C105.77 158.847 84.0903 167.131 98.726 169.503C138.639 175.976 171.484 166.589 161.131 161.919ZM119.304 131.529C119.304 131.529 101.129 135.846 112.868 137.413C117.824 138.077 127.704 137.927 136.908 137.155C144.429 136.521 151.982 135.172 151.982 135.172C151.982 135.172 149.33 136.308 147.411 137.618C128.955 142.472 93.301 140.214 103.565 135.249C112.246 131.053 119.304 131.529 119.304 131.529H119.304ZM151.907 149.753C170.669 140.003 161.994 130.635 155.939 131.897C154.455 132.206 153.794 132.473 153.794 132.473C153.794 132.473 154.345 131.61 155.397 131.237C167.375 127.026 176.587 143.657 151.53 150.244C151.53 150.244 151.82 149.985 151.907 149.753Z" fill="#5382A1"/>
<path d="M140.596 76.4854C140.596 76.4854 150.986 86.8797 130.741 102.862C114.506 115.684 127.039 122.994 130.734 131.346C121.258 122.796 114.303 115.269 118.969 108.264C125.817 97.9808 144.788 92.9953 140.596 76.4851" fill="#E76F00"/>
<path d="M121.147 176.171C139.156 177.324 166.811 175.531 167.466 167.01C167.466 167.01 166.207 170.241 152.582 172.806C137.211 175.698 118.254 175.361 107.01 173.507C107.01 173.507 109.311 175.412 121.148 176.171" fill="#5382A1"/>
<defs>
<filter id="filter0_d_33_2245" x="0.313477" y="0.890869" width="260" height="260" filterUnits="userSpaceOnUse" color-interpolation-filters="sRGB">
<feFlood flood-opacity="0" result="BackgroundImageFix"/>
<feColorMatrix in="SourceAlpha" type="matrix" values="0 0 0 0 0 0 0 0 0 0 0 0 0 0 0 0 0 0 127 0" result="hardAlpha"/>
<feOffset dy="4"/>
<feGaussianBlur stdDeviation="20"/>
<feComposite in2="hardAlpha" operator="out"/>
<feColorMatrix type="matrix" values="0 0 0 0 0.0367917 0 0 0 0 0.0348958 0 0 0 0 0.0484375 0 0 0 0.1 0"/>
<feBlend mode="normal" in2="BackgroundImageFix" result="effect1_dropShadow_33_2245"/>
<feBlend mode="normal" in="SourceGraphic" in2="effect1_dropShadow_33_2245" result="shape"/>
</filter>
</defs>
</svg>
