<svg width="260" height="261" viewBox="0 0 260 261" fill="none" xmlns="http://www.w3.org/2000/svg">
<g filter="url(#filter0_d_22_687)">
<path d="M40.0001 100.297C40.0001 70.127 40.0001 55.042 49.3727 45.6695C58.7453 36.2969 73.8302 36.2969 104 36.2969H156C186.17 36.2969 201.255 36.2969 210.628 45.6695C220 55.042 220 70.127 220 100.297V152.297C220 182.467 220 197.552 210.628 206.924C201.255 216.297 186.17 216.297 156 216.297H104C73.8302 216.297 58.7453 216.297 49.3727 206.924C40.0001 197.552 40.0001 182.467 40.0001 152.297V100.297Z" fill="white"/>
<path d="M49.3727 206.924L48.6656 207.631L49.3727 206.924ZM210.628 206.924L209.92 206.217L210.628 206.924ZM210.628 45.6695L211.335 44.9624L210.628 45.6695ZM104 37.2969H156V35.2969H104V37.2969ZM219 100.297V152.297H221V100.297H219ZM156 215.297H104V217.297H156V215.297ZM41.0001 152.297V100.297H39.0001V152.297H41.0001ZM104 215.297C88.8869 215.297 77.6526 215.295 69.0207 214.134C60.4175 212.978 54.5493 210.687 50.0798 206.217L48.6656 207.631C53.5687 212.534 59.9292 214.93 68.7542 216.116C77.5503 217.299 88.9434 217.297 104 217.297V215.297ZM39.0001 152.297C39.0001 167.354 38.998 178.747 40.1806 187.543C41.3671 196.368 43.7625 202.728 48.6656 207.631L50.0798 206.217C45.6103 201.748 43.3194 195.879 42.1628 187.276C41.0022 178.644 41.0001 167.41 41.0001 152.297H39.0001ZM219 152.297C219 167.41 218.998 178.644 217.837 187.276C216.681 195.879 214.39 201.748 209.92 206.217L211.335 207.631C216.238 202.728 218.633 196.368 219.82 187.543C221.002 178.747 221 167.354 221 152.297H219ZM156 217.297C171.057 217.297 182.45 217.299 191.246 216.116C200.071 214.93 206.432 212.534 211.335 207.631L209.92 206.217C205.451 210.687 199.583 212.978 190.98 214.134C182.348 215.295 171.113 215.297 156 215.297V217.297ZM156 37.2969C171.113 37.2969 182.348 37.299 190.98 38.4595C199.583 39.6162 205.451 41.907 209.92 46.3766L211.335 44.9624C206.432 40.0593 200.071 37.6638 191.246 36.4774C182.45 35.2948 171.057 35.2969 156 35.2969V37.2969ZM221 100.297C221 85.2402 221.002 73.8471 219.82 65.0509C218.633 56.226 216.238 49.8654 211.335 44.9624L209.92 46.3766C214.39 50.8461 216.681 56.7143 217.837 65.3174C218.998 73.9493 219 85.1837 219 100.297H221ZM104 35.2969C88.9434 35.2969 77.5503 35.2948 68.7542 36.4774C59.9292 37.6638 53.5687 40.0593 48.6656 44.9624L50.0798 46.3766C54.5493 41.907 60.4175 39.6162 69.0207 38.4595C77.6526 37.299 88.8869 37.2969 104 37.2969V35.2969ZM41.0001 100.297C41.0001 85.1837 41.0022 73.9493 42.1628 65.3174C43.3194 56.7143 45.6103 50.8461 50.0798 46.3766L48.6656 44.9624C43.7625 49.8654 41.3671 56.226 40.1806 65.0509C38.998 73.8471 39.0001 85.2402 39.0001 100.297H41.0001Z" fill="#D9D9D9"/>
</g>
<path d="M179.933 75.8911H130.141L82.5954 125.891H129.845L130.066 125.666L179.933 75.8911Z" fill="url(#paint0_linear_22_687)"/>
<path d="M179.933 175.891H79.9329H179.933ZM130.066 125.666L129.845 125.891H130.291L130.066 125.666Z" fill="url(#paint1_linear_22_687)"/>
<path d="M130.141 75.8911H79.9329V128.691V125.891H82.5954L130.141 75.8911Z" fill="url(#paint2_linear_22_687)"/>
<path d="M129.845 125.891H82.5954L79.9329 128.691V175.891L129.845 125.891Z" fill="url(#paint3_linear_22_687)"/>
<path d="M130.291 125.891H129.845L79.9329 175.891H179.933L130.291 125.891Z" fill="url(#paint4_linear_22_687)"/>
<path d="M82.5954 125.891H79.9329V128.691L82.5954 125.891Z" fill="url(#paint5_linear_22_687)"/>
<defs>
<filter id="filter0_d_22_687" x="0.00012207" y="0.296875" width="260" height="260" filterUnits="userSpaceOnUse" color-interpolation-filters="sRGB">
<feFlood flood-opacity="0" result="BackgroundImageFix"/>
<feColorMatrix in="SourceAlpha" type="matrix" values="0 0 0 0 0 0 0 0 0 0 0 0 0 0 0 0 0 0 127 0" result="hardAlpha"/>
<feOffset dy="4"/>
<feGaussianBlur stdDeviation="20"/>
<feComposite in2="hardAlpha" operator="out"/>
<feColorMatrix type="matrix" values="0 0 0 0 0.0367917 0 0 0 0 0.0348958 0 0 0 0 0.0484375 0 0 0 0.1 0"/>
<feBlend mode="normal" in2="BackgroundImageFix" result="effect1_dropShadow_22_687"/>
<feBlend mode="normal" in="SourceGraphic" in2="effect1_dropShadow_22_687" result="shape"/>
</filter>
<linearGradient id="paint0_linear_22_687" x1="62.0849" y1="167.277" x2="155.14" y2="74.2221" gradientUnits="userSpaceOnUse">
<stop stop-color="#C757BC"/>
<stop offset="0.108" stop-color="#C757BC"/>
<stop offset="0.173" stop-color="#CD5CA9"/>
<stop offset="0.492" stop-color="#E8744F"/>
<stop offset="0.716" stop-color="#F88316"/>
<stop offset="0.823" stop-color="#FF8900"/>
<stop offset="1" stop-color="#FF8900"/>
</linearGradient>
<linearGradient id="paint1_linear_22_687" x1="112.237" y1="193.904" x2="157.594" y2="148.547" gradientUnits="userSpaceOnUse">
<stop stop-color="#00AFFF"/>
<stop offset="0.296" stop-color="#00AFFF"/>
<stop offset="0.694" stop-color="#5282FF"/>
<stop offset="1" stop-color="#945DFF"/>
</linearGradient>
<linearGradient id="paint2_linear_22_687" x1="78.8782" y1="103.527" x2="110.697" y2="71.7082" gradientUnits="userSpaceOnUse">
<stop stop-color="#00AFFF"/>
<stop offset="0.296" stop-color="#00AFFF"/>
<stop offset="0.694" stop-color="#5282FF"/>
<stop offset="1" stop-color="#945DFF"/>
</linearGradient>
<linearGradient id="paint3_linear_22_687" x1="62.6432" y1="167.836" x2="155.698" y2="74.7804" gradientUnits="userSpaceOnUse">
<stop stop-color="#AD4CA4"/>
<stop offset="0.108" stop-color="#AD4CA4"/>
<stop offset="0.173" stop-color="#B25093"/>
<stop offset="0.492" stop-color="#CA6545"/>
<stop offset="0.716" stop-color="#D87213"/>
<stop offset="0.823" stop-color="#DE7700"/>
<stop offset="1" stop-color="#DE7700"/>
</linearGradient>
<linearGradient id="paint4_linear_22_687" x1="112.237" y1="193.904" x2="157.594" y2="148.547" gradientUnits="userSpaceOnUse">
<stop stop-color="#0098DE"/>
<stop offset="0.296" stop-color="#0098DE"/>
<stop offset="0.694" stop-color="#4771DE"/>
<stop offset="1" stop-color="#8151DE"/>
</linearGradient>
<linearGradient id="paint5_linear_22_687" x1="91.3831" y1="116.032" x2="123.201" y2="84.2128" gradientUnits="userSpaceOnUse">
<stop stop-color="#0098DE"/>
<stop offset="0.296" stop-color="#0098DE"/>
<stop offset="0.694" stop-color="#4771DE"/>
<stop offset="1" stop-color="#8151DE"/>
</linearGradient>
</defs>
</svg>
