<svg width="261" height="261" viewBox="0 0 261 261" fill="none" xmlns="http://www.w3.org/2000/svg">
<g filter="url(#filter0_d_22_683)">
<path d="M40.724 100.297C40.724 70.127 40.724 55.042 50.0966 45.6695C59.4692 36.2969 74.5541 36.2969 104.724 36.2969H156.724C186.894 36.2969 201.979 36.2969 211.351 45.6695C220.724 55.042 220.724 70.127 220.724 100.297V152.297C220.724 182.467 220.724 197.552 211.351 206.924C201.979 216.297 186.894 216.297 156.724 216.297H104.724C74.5541 216.297 59.4692 216.297 50.0966 206.924C40.724 197.552 40.724 182.467 40.724 152.297V100.297Z" fill="white"/>
<path d="M50.0966 206.924L49.3895 207.631L50.0966 206.924ZM211.351 206.924L210.644 206.217L211.351 206.924ZM211.351 45.6695L212.059 44.9624L211.351 45.6695ZM104.724 37.2969H156.724V35.2969H104.724V37.2969ZM219.724 100.297V152.297H221.724V100.297H219.724ZM156.724 215.297H104.724V217.297H156.724V215.297ZM41.724 152.297V100.297H39.724V152.297H41.724ZM104.724 215.297C89.6108 215.297 78.3765 215.295 69.7445 214.134C61.1414 212.978 55.2732 210.687 50.8037 206.217L49.3895 207.631C54.2925 212.534 60.6531 214.93 69.4781 216.116C78.2742 217.299 89.6673 217.297 104.724 217.297V215.297ZM39.724 152.297C39.724 167.354 39.7219 178.747 40.9045 187.543C42.091 196.368 44.4864 202.728 49.3895 207.631L50.8037 206.217C46.3342 201.748 44.0433 195.879 42.8867 187.276C41.7261 178.644 41.724 167.41 41.724 152.297H39.724ZM219.724 152.297C219.724 167.41 219.722 178.644 218.561 187.276C217.405 195.879 215.114 201.748 210.644 206.217L212.059 207.631C216.962 202.728 219.357 196.368 220.544 187.543C221.726 178.747 221.724 167.354 221.724 152.297H219.724ZM156.724 217.297C171.781 217.297 183.174 217.299 191.97 216.116C200.795 214.93 207.155 212.534 212.059 207.631L210.644 206.217C206.175 210.687 200.307 212.978 191.703 214.134C183.072 215.295 171.837 215.297 156.724 215.297V217.297ZM156.724 37.2969C171.837 37.2969 183.072 37.299 191.703 38.4595C200.307 39.6162 206.175 41.907 210.644 46.3766L212.059 44.9624C207.155 40.0593 200.795 37.6638 191.97 36.4774C183.174 35.2948 171.781 35.2969 156.724 35.2969V37.2969ZM221.724 100.297C221.724 85.2402 221.726 73.8471 220.544 65.0509C219.357 56.226 216.962 49.8654 212.059 44.9624L210.644 46.3766C215.114 50.8461 217.405 56.7143 218.561 65.3174C219.722 73.9493 219.724 85.1837 219.724 100.297H221.724ZM104.724 35.2969C89.6673 35.2969 78.2742 35.2948 69.4781 36.4774C60.6531 37.6638 54.2925 40.0593 49.3895 44.9624L50.8037 46.3766C55.2732 41.907 61.1414 39.6162 69.7445 38.4595C78.3765 37.299 89.6108 37.2969 104.724 37.2969V35.2969ZM41.724 100.297C41.724 85.1837 41.7261 73.9493 42.8867 65.3174C44.0433 56.7143 46.3342 50.8461 50.8037 46.3766L49.3895 44.9624C44.4864 49.8654 42.091 56.226 40.9045 65.0509C39.7219 73.8471 39.724 85.2402 39.724 100.297H41.724Z" fill="#D9D9D9"/>
</g>
<path d="M130.068 76.1642L132.736 81.1763C133.336 82.1012 133.986 82.9199 134.752 83.6824C136.996 85.8989 139.088 88.2645 141.014 90.7631C145.535 96.7002 148.585 103.293 150.763 110.424C152.069 114.78 152.779 119.248 152.832 123.767C153.05 137.275 148.419 148.874 139.083 158.514C137.564 160.043 135.923 161.445 134.177 162.708C133.252 162.708 132.814 161.998 132.433 161.345C131.739 160.134 131.277 158.804 131.071 157.424C130.743 155.789 130.527 154.155 130.633 152.468V151.705C130.558 151.543 129.743 76.5485 130.068 76.1642Z" fill="#599636"/>
<path d="M130.068 75.9986C129.958 75.7799 129.849 75.9455 129.74 76.0517C129.793 77.1454 129.411 78.1203 128.815 79.0515C128.158 79.9764 127.29 80.6858 126.418 81.4482C121.575 85.6417 117.762 90.7069 114.709 96.3721C110.647 103.997 108.554 112.168 107.96 120.77C107.688 123.873 108.941 134.822 109.919 137.982C112.588 146.368 117.381 153.396 123.59 159.496C125.115 160.964 126.746 162.327 128.433 163.636C128.924 163.636 128.977 163.198 129.09 162.873C129.305 162.178 129.469 161.468 129.58 160.749L130.674 152.58L130.068 75.9986Z" fill="#6CAC48"/>
<path d="M132.736 166.026C132.846 164.776 133.446 163.739 134.099 162.705C133.442 162.433 132.955 161.892 132.574 161.289C132.245 160.718 131.973 160.116 131.761 159.492C130.999 157.205 130.836 154.805 130.618 152.468V151.052C130.346 151.271 130.29 153.121 130.29 153.396C130.131 155.866 129.803 158.323 129.308 160.749C129.146 161.73 129.036 162.708 128.433 163.58C128.433 163.689 128.433 163.798 128.487 163.961C129.468 166.848 129.736 169.789 129.902 172.785V173.879C129.902 175.185 129.849 174.91 130.933 175.347C131.371 175.51 131.858 175.566 132.296 175.891C132.624 175.891 132.677 175.619 132.677 175.401L132.514 173.604V168.592C132.461 167.717 132.624 166.848 132.733 166.029L132.736 166.026Z" fill="#C2BFBF"/>
<defs>
<filter id="filter0_d_22_683" x="0.723999" y="0.296875" width="260" height="260" filterUnits="userSpaceOnUse" color-interpolation-filters="sRGB">
<feFlood flood-opacity="0" result="BackgroundImageFix"/>
<feColorMatrix in="SourceAlpha" type="matrix" values="0 0 0 0 0 0 0 0 0 0 0 0 0 0 0 0 0 0 127 0" result="hardAlpha"/>
<feOffset dy="4"/>
<feGaussianBlur stdDeviation="20"/>
<feComposite in2="hardAlpha" operator="out"/>
<feColorMatrix type="matrix" values="0 0 0 0 0.0367917 0 0 0 0 0.0348958 0 0 0 0 0.0484375 0 0 0 0.1 0"/>
<feBlend mode="normal" in2="BackgroundImageFix" result="effect1_dropShadow_22_683"/>
<feBlend mode="normal" in="SourceGraphic" in2="effect1_dropShadow_22_683" result="shape"/>
</filter>
</defs>
</svg>
