<svg width="261" height="261" viewBox="0 0 261 261" fill="none" xmlns="http://www.w3.org/2000/svg">
<g filter="url(#filter0_d_25_412)">
<path d="M40.9329 100.594C40.9329 70.4241 40.9329 55.3392 50.3054 45.9666C59.678 36.594 74.763 36.594 104.933 36.594H156.933C187.103 36.594 202.188 36.594 211.56 45.9666C220.933 55.3392 220.933 70.4241 220.933 100.594V152.594C220.933 182.764 220.933 197.849 211.56 207.221C202.188 216.594 187.103 216.594 156.933 216.594H104.933C74.763 216.594 59.678 216.594 50.3054 207.221C40.9329 197.849 40.9329 182.764 40.9329 152.594V100.594Z" fill="white"/>
<path d="M50.3054 207.221L49.5983 207.929L50.3054 207.221ZM211.56 207.221L210.853 206.514L211.56 207.221ZM211.56 45.9666L212.267 45.2595L211.56 45.9666ZM104.933 37.594H156.933V35.594H104.933V37.594ZM219.933 100.594V152.594H221.933V100.594H219.933ZM156.933 215.594H104.933V217.594H156.933V215.594ZM41.9329 152.594V100.594H39.9329V152.594H41.9329ZM104.933 215.594C89.8196 215.594 78.5853 215.592 69.9534 214.431C61.3503 213.275 55.4821 210.984 51.0126 206.514L49.5983 207.929C54.5014 212.832 60.862 215.227 69.6869 216.413C78.4831 217.596 89.8762 217.594 104.933 217.594V215.594ZM39.9329 152.594C39.9329 167.651 39.9307 179.044 41.1134 187.84C42.2998 196.665 44.6953 203.025 49.5983 207.929L51.0126 206.514C46.543 202.045 44.2522 196.177 43.0955 187.573C41.935 178.942 41.9329 167.707 41.9329 152.594H39.9329ZM219.933 152.594C219.933 167.707 219.931 178.942 218.77 187.573C217.614 196.177 215.323 202.045 210.853 206.514L212.267 207.929C217.17 203.025 219.566 196.665 220.752 187.84C221.935 179.044 221.933 167.651 221.933 152.594H219.933ZM156.933 217.594C171.99 217.594 183.383 217.596 192.179 216.413C201.004 215.227 207.364 212.832 212.267 207.929L210.853 206.514C206.384 210.984 200.515 213.275 191.912 214.431C183.28 215.592 172.046 215.594 156.933 215.594V217.594ZM156.933 37.594C172.046 37.594 183.28 37.5961 191.912 38.7566C200.515 39.9133 206.384 42.2042 210.853 46.6737L212.267 45.2595C207.364 40.3564 201.004 37.961 192.179 36.7745C183.383 35.5919 171.99 35.594 156.933 35.594V37.594ZM221.933 100.594C221.933 85.5373 221.935 74.1442 220.752 65.348C219.566 56.5231 217.17 50.1625 212.267 45.2595L210.853 46.6737C215.323 51.1432 217.614 57.0114 218.77 65.6145C219.931 74.2465 219.933 85.4808 219.933 100.594H221.933ZM104.933 35.594C89.8762 35.594 78.4831 35.5919 69.6869 36.7745C60.862 37.961 54.5014 40.3564 49.5983 45.2595L51.0126 46.6737C55.4821 42.2042 61.3503 39.9133 69.9534 38.7566C78.5853 37.5961 89.8196 37.594 104.933 37.594V35.594ZM41.9329 100.594C41.9329 85.4808 41.935 74.2465 43.0955 65.6145C44.2522 57.0114 46.543 51.1432 51.0126 46.6737L49.5983 45.2595C44.6953 50.1625 42.2998 56.5231 41.1134 65.348C39.9307 74.1442 39.9329 85.5373 39.9329 100.594H41.9329Z" fill="#D9D9D9"/>
</g>
<path d="M81.2089 129.797V86.4966L118.709 108.147V122.58L93.7089 108.147V137.013L81.2089 129.797Z" fill="#00B0FF"/>
<path d="M118.709 108.147L156.209 86.4966V129.797L131.209 144.23L118.709 137.013L143.709 122.58V108.147L118.709 122.58V108.147Z" fill="#0081CB"/>
<path d="M118.709 137.013V151.447L143.709 165.88V151.447L118.709 137.013Z" fill="#00B0FF"/>
<path d="M143.709 165.88L181.209 144.23V115.363L168.709 122.58V137.013L143.709 151.447V165.88ZM168.709 108.147V93.7132L181.209 86.4966V100.93L168.709 108.147Z" fill="#0081CB"/>
<defs>
<filter id="filter0_d_25_412" x="0.932861" y="0.593994" width="260" height="260" filterUnits="userSpaceOnUse" color-interpolation-filters="sRGB">
<feFlood flood-opacity="0" result="BackgroundImageFix"/>
<feColorMatrix in="SourceAlpha" type="matrix" values="0 0 0 0 0 0 0 0 0 0 0 0 0 0 0 0 0 0 127 0" result="hardAlpha"/>
<feOffset dy="4"/>
<feGaussianBlur stdDeviation="20"/>
<feComposite in2="hardAlpha" operator="out"/>
<feColorMatrix type="matrix" values="0 0 0 0 0.0367917 0 0 0 0 0.0348958 0 0 0 0 0.0484375 0 0 0 0.1 0"/>
<feBlend mode="normal" in2="BackgroundImageFix" result="effect1_dropShadow_25_412"/>
<feBlend mode="normal" in="SourceGraphic" in2="effect1_dropShadow_25_412" result="shape"/>
</filter>
</defs>
</svg>
