<svg width="261" height="260" viewBox="0 0 261 260" fill="none" xmlns="http://www.w3.org/2000/svg">
<g filter="url(#filter0_d_20_1660)">
<path d="M40.724 100C40.724 69.8301 40.724 54.7452 50.0966 45.3726C59.4692 36 74.5541 36 104.724 36H156.724C186.894 36 201.979 36 211.351 45.3726C220.724 54.7452 220.724 69.8301 220.724 100V152C220.724 182.17 220.724 197.255 211.351 206.627C201.979 216 186.894 216 156.724 216H104.724C74.5541 216 59.4692 216 50.0966 206.627C40.724 197.255 40.724 182.17 40.724 152V100Z" fill="white"/>
<path d="M50.0966 206.627L49.3895 207.335L50.0966 206.627ZM211.351 206.627L210.644 205.92L211.351 206.627ZM211.351 45.3726L212.059 44.6655L211.351 45.3726ZM104.724 37H156.724V35H104.724V37ZM219.724 100V152H221.724V100H219.724ZM156.724 215H104.724V217H156.724V215ZM41.724 152V100H39.724V152H41.724ZM104.724 215C89.6108 215 78.3765 214.998 69.7445 213.837C61.1414 212.681 55.2732 210.39 50.8037 205.92L49.3895 207.335C54.2925 212.238 60.6531 214.633 69.4781 215.82C78.2742 217.002 89.6673 217 104.724 217V215ZM39.724 152C39.724 167.057 39.7219 178.45 40.9045 187.246C42.091 196.071 44.4864 202.431 49.3895 207.335L50.8037 205.92C46.3342 201.451 44.0433 195.583 42.8867 186.979C41.7261 178.348 41.724 167.113 41.724 152H39.724ZM219.724 152C219.724 167.113 219.722 178.348 218.561 186.979C217.405 195.583 215.114 201.451 210.644 205.92L212.059 207.335C216.962 202.431 219.357 196.071 220.544 187.246C221.726 178.45 221.724 167.057 221.724 152H219.724ZM156.724 217C171.781 217 183.174 217.002 191.97 215.82C200.795 214.633 207.155 212.238 212.059 207.335L210.644 205.92C206.175 210.39 200.307 212.681 191.703 213.837C183.072 214.998 171.837 215 156.724 215V217ZM156.724 37C171.837 37 183.072 37.0021 191.703 38.1627C200.307 39.3193 206.175 41.6102 210.644 46.0797L212.059 44.6655C207.155 39.7624 200.795 37.367 191.97 36.1805C183.174 34.9979 171.781 35 156.724 35V37ZM221.724 100C221.724 84.9433 221.726 73.5502 220.544 64.7541C219.357 55.9291 216.962 49.5685 212.059 44.6655L210.644 46.0797C215.114 50.5492 217.405 56.4174 218.561 65.0205C219.722 73.6525 219.724 84.8868 219.724 100H221.724ZM104.724 35C89.6673 35 78.2742 34.9979 69.4781 36.1805C60.6531 37.367 54.2925 39.7624 49.3895 44.6655L50.8037 46.0797C55.2732 41.6102 61.1414 39.3193 69.7445 38.1627C78.3765 37.0021 89.6108 37 104.724 37V35ZM41.724 100C41.724 84.8868 41.7261 73.6525 42.8867 65.0205C44.0433 56.4174 46.3342 50.5492 50.8037 46.0797L49.3895 44.6655C44.4864 49.5685 42.091 55.9291 40.9045 64.7541C39.7219 73.5502 39.724 84.9433 39.724 100H41.724Z" fill="#D9D9D9"/>
</g>
<path d="M126.734 77.364C129.214 75.9447 132.443 75.9383 134.921 77.364C147.384 84.4066 159.852 91.4381 172.313 98.485C174.657 99.8052 176.225 102.414 176.201 105.114V147.485C176.218 150.298 174.496 152.969 172.023 154.259C159.6 161.263 147.184 168.275 134.764 175.279C132.233 176.726 128.938 176.614 126.487 175.049C122.762 172.89 119.032 170.741 115.307 168.585C114.546 168.131 113.688 167.77 113.15 167.032C113.625 166.391 114.475 166.312 115.165 166.032C116.72 165.538 118.148 164.744 119.576 163.974C119.937 163.727 120.378 163.822 120.724 164.043C123.909 165.869 127.065 167.748 130.261 169.556C130.942 169.95 131.633 169.428 132.215 169.103C144.406 162.213 156.611 155.349 168.799 148.457C169.251 148.24 169.501 147.761 169.464 147.266C169.472 133.289 169.466 119.309 169.468 105.332C169.52 104.77 169.195 104.254 168.688 104.025C156.308 97.0529 143.935 90.0705 131.557 83.097C131.343 82.9496 131.089 82.8704 130.829 82.8701C130.569 82.8697 130.314 82.948 130.099 83.0948C117.722 90.0705 105.351 97.0593 92.9736 104.031C92.4678 104.261 92.1284 104.768 92.1886 105.332C92.1907 119.309 92.1886 133.289 92.1886 147.268C92.1671 147.509 92.2201 147.752 92.3405 147.962C92.4609 148.172 92.6428 148.341 92.8617 148.444C96.1647 150.317 99.4719 152.177 102.777 154.044C104.639 155.046 106.925 155.642 108.977 154.874C110.787 154.224 112.056 152.377 112.021 150.455C112.038 136.559 112.013 122.661 112.034 108.768C111.989 108.151 112.574 107.641 113.174 107.699C114.761 107.689 116.35 107.678 117.937 107.704C118.6 107.689 119.055 108.353 118.973 108.974C118.967 122.958 118.991 136.942 118.963 150.926C118.967 154.652 117.436 158.708 113.989 160.531C109.742 162.731 104.493 162.265 100.298 160.155C96.6654 158.342 93.1994 156.203 89.6318 154.261C87.1526 152.978 85.4384 150.296 85.4559 147.486V105.114C85.4299 102.358 87.06 99.7019 89.4768 98.4009C101.897 91.3914 114.316 84.3766 126.734 77.364Z" fill="#8CC84B"/>
<path d="M137.57 106.715C142.987 106.366 148.786 106.508 153.661 109.177C157.435 111.222 159.527 115.514 159.594 119.707C159.488 120.272 158.897 120.584 158.357 120.545C156.786 120.543 155.214 120.567 153.642 120.535C152.975 120.56 152.588 119.946 152.504 119.356C152.052 117.35 150.958 115.363 149.07 114.395C146.171 112.944 142.81 113.017 139.649 113.047C137.342 113.17 134.86 113.37 132.905 114.727C131.405 115.754 130.949 117.829 131.484 119.5C131.989 120.7 133.375 121.087 134.508 121.444C141.036 123.152 147.954 122.982 154.358 125.229C157.009 126.145 159.602 127.926 160.51 130.701C161.697 134.422 161.177 138.869 158.53 141.855C156.383 144.313 153.257 145.651 150.139 146.378C145.991 147.302 141.686 147.326 137.473 146.915C133.512 146.464 129.39 145.423 126.332 142.724C123.717 140.454 122.44 136.916 122.567 133.502C122.597 132.925 123.171 132.523 123.723 132.57C125.306 132.557 126.889 132.553 128.472 132.572C129.104 132.527 129.573 133.073 129.605 133.669C129.897 135.581 130.615 137.587 132.282 138.72C135.499 140.796 139.535 140.653 143.219 140.712C146.27 140.576 149.696 140.535 152.186 138.518C153.5 137.368 153.889 135.443 153.534 133.788C153.149 132.39 151.687 131.738 150.431 131.312C143.986 129.274 136.991 130.013 130.609 127.708C128.018 126.792 125.512 125.061 124.517 122.399C123.128 118.632 123.764 113.972 126.689 111.086C129.54 108.215 133.656 107.11 137.57 106.714V106.715Z" fill="#8CC84B"/>
<defs>
<filter id="filter0_d_20_1660" x="0.723999" y="0" width="260" height="260" filterUnits="userSpaceOnUse" color-interpolation-filters="sRGB">
<feFlood flood-opacity="0" result="BackgroundImageFix"/>
<feColorMatrix in="SourceAlpha" type="matrix" values="0 0 0 0 0 0 0 0 0 0 0 0 0 0 0 0 0 0 127 0" result="hardAlpha"/>
<feOffset dy="4"/>
<feGaussianBlur stdDeviation="20"/>
<feComposite in2="hardAlpha" operator="out"/>
<feColorMatrix type="matrix" values="0 0 0 0 0.0367917 0 0 0 0 0.0348958 0 0 0 0 0.0484375 0 0 0 0.1 0"/>
<feBlend mode="normal" in2="BackgroundImageFix" result="effect1_dropShadow_20_1660"/>
<feBlend mode="normal" in="SourceGraphic" in2="effect1_dropShadow_20_1660" result="shape"/>
</filter>
</defs>
</svg>
