<svg width="261" height="260" viewBox="0 0 261 260" fill="none" xmlns="http://www.w3.org/2000/svg">
<g filter="url(#filter0_d_20_1664)">
<path d="M40.724 100C40.724 69.8301 40.724 54.7452 50.0966 45.3726C59.4692 36 74.5541 36 104.724 36H156.724C186.894 36 201.979 36 211.351 45.3726C220.724 54.7452 220.724 69.8301 220.724 100V152C220.724 182.17 220.724 197.255 211.351 206.627C201.979 216 186.894 216 156.724 216H104.724C74.5541 216 59.4692 216 50.0966 206.627C40.724 197.255 40.724 182.17 40.724 152V100Z" fill="white"/>
<path d="M50.0966 206.627L49.3895 207.335L50.0966 206.627ZM211.351 206.627L210.644 205.92L211.351 206.627ZM211.351 45.3726L212.059 44.6655L211.351 45.3726ZM104.724 37H156.724V35H104.724V37ZM219.724 100V152H221.724V100H219.724ZM156.724 215H104.724V217H156.724V215ZM41.724 152V100H39.724V152H41.724ZM104.724 215C89.6108 215 78.3765 214.998 69.7445 213.837C61.1414 212.681 55.2732 210.39 50.8037 205.92L49.3895 207.335C54.2925 212.238 60.6531 214.633 69.4781 215.82C78.2742 217.002 89.6673 217 104.724 217V215ZM39.724 152C39.724 167.057 39.7219 178.45 40.9045 187.246C42.091 196.071 44.4864 202.431 49.3895 207.335L50.8037 205.92C46.3342 201.451 44.0433 195.583 42.8867 186.979C41.7261 178.348 41.724 167.113 41.724 152H39.724ZM219.724 152C219.724 167.113 219.722 178.348 218.561 186.979C217.405 195.583 215.114 201.451 210.644 205.92L212.059 207.335C216.962 202.431 219.357 196.071 220.544 187.246C221.726 178.45 221.724 167.057 221.724 152H219.724ZM156.724 217C171.781 217 183.174 217.002 191.97 215.82C200.795 214.633 207.155 212.238 212.059 207.335L210.644 205.92C206.175 210.39 200.307 212.681 191.703 213.837C183.072 214.998 171.837 215 156.724 215V217ZM156.724 37C171.837 37 183.072 37.0021 191.703 38.1627C200.307 39.3193 206.175 41.6102 210.644 46.0797L212.059 44.6655C207.155 39.7624 200.795 37.367 191.97 36.1805C183.174 34.9979 171.781 35 156.724 35V37ZM221.724 100C221.724 84.9433 221.726 73.5502 220.544 64.7541C219.357 55.9291 216.962 49.5685 212.059 44.6655L210.644 46.0797C215.114 50.5492 217.405 56.4174 218.561 65.0205C219.722 73.6525 219.724 84.8868 219.724 100H221.724ZM104.724 35C89.6673 35 78.2742 34.9979 69.4781 36.1805C60.6531 37.367 54.2925 39.7624 49.3895 44.6655L50.8037 46.0797C55.2732 41.6102 61.1414 39.3193 69.7445 38.1627C78.3765 37.0021 89.6108 37 104.724 37V35ZM41.724 100C41.724 84.8868 41.7261 73.6525 42.8867 65.0205C44.0433 56.4174 46.3342 50.5492 50.8037 46.0797L49.3895 44.6655C44.4864 49.5685 42.091 55.9291 40.9045 64.7541C39.7219 73.5502 39.724 84.9433 39.724 100H41.724Z" fill="#D9D9D9"/>
</g>
<path d="M103.872 111.937H122.733V113.429H105.601V124.657H121.711V126.149H105.601V138.477H122.929V139.968H103.872V111.937ZM124.422 111.937H126.426L135.307 124.264L144.384 111.937L156.73 96.2776L136.446 125.56L146.898 139.968H144.816L135.307 126.856L125.758 139.968H123.715L134.246 125.56L124.422 111.937ZM147.645 113.429V111.937H169.139V113.429H159.237V139.968H157.508V113.429H147.645Z" fill="black"/>
<path d="M80.2761 111.937H82.4373L112.238 156.317L99.9229 139.968L82.0836 114.057L82.005 139.968H80.2761V111.937Z" fill="black"/>
<path d="M168.964 138.026C169.322 138.026 169.583 137.754 169.583 137.402C169.583 137.05 169.322 136.778 168.964 136.778C168.611 136.778 168.346 137.05 168.346 137.402C168.346 137.754 168.611 138.026 168.964 138.026ZM170.663 136.384C170.663 137.423 171.416 138.102 172.513 138.102C173.682 138.102 174.389 137.402 174.389 136.187V131.908H173.447V136.183C173.447 136.857 173.106 137.218 172.505 137.218C171.967 137.218 171.601 136.882 171.588 136.384H170.663ZM175.621 136.329C175.688 137.41 176.592 138.102 177.938 138.102C179.376 138.102 180.276 137.377 180.276 136.22C180.276 135.311 179.763 134.808 178.518 134.519L177.85 134.356C177.059 134.171 176.74 133.924 176.74 133.492C176.74 132.948 177.236 132.591 177.98 132.591C178.687 132.591 179.174 132.939 179.263 133.497H180.179C180.125 132.478 179.225 131.762 177.993 131.762C176.668 131.762 175.785 132.478 175.785 133.555C175.785 134.444 176.285 134.972 177.383 135.227L178.165 135.416C178.968 135.604 179.322 135.881 179.322 136.342C179.322 136.878 178.766 137.268 178.01 137.268C177.198 137.268 176.634 136.903 176.555 136.329H175.621Z" fill="black"/>
<defs>
<filter id="filter0_d_20_1664" x="0.723999" y="0" width="260" height="260" filterUnits="userSpaceOnUse" color-interpolation-filters="sRGB">
<feFlood flood-opacity="0" result="BackgroundImageFix"/>
<feColorMatrix in="SourceAlpha" type="matrix" values="0 0 0 0 0 0 0 0 0 0 0 0 0 0 0 0 0 0 127 0" result="hardAlpha"/>
<feOffset dy="4"/>
<feGaussianBlur stdDeviation="20"/>
<feComposite in2="hardAlpha" operator="out"/>
<feColorMatrix type="matrix" values="0 0 0 0 0.0367917 0 0 0 0 0.0348958 0 0 0 0 0.0484375 0 0 0 0.1 0"/>
<feBlend mode="normal" in2="BackgroundImageFix" result="effect1_dropShadow_20_1664"/>
<feBlend mode="normal" in="SourceGraphic" in2="effect1_dropShadow_20_1664" result="shape"/>
</filter>
</defs>
</svg>
